REM DIRINDEX 1\2,1\4,1\5,1\6,1\7,1\3\8,1\3\9,1\3\10
REM DIRNAME folder01,folder02,folder03,folder04,folder05,folder06,folder07,folder08,folder09,folder10
TITLE ""
FILE "DB4500_5th_3B_02.mp3" MP3
  TRACK 01 AUDIO
    TITLE "8:cjc113_1865"
    INDEX 01 00:00:00
  TRACK 02 AUDIO
    TITLE "0:"
    INDEX 01 00:01:38
  TRACK 03 AUDIO
    TITLE "9:cjc113_1866"
    INDEX 01 00:01:56
  TRACK 04 AUDIO
    TITLE "0:"
    INDEX 01 00:02:65
  TRACK 05 AUDIO
    TITLE "10:cjc113_1867"
    INDEX 01 00:03:10
  TRACK 06 AUDIO
    TITLE "0:"
    INDEX 01 00:06:08
  TRACK 07 AUDIO
    TITLE "8:cjc113_1868"
    INDEX 01 00:06:49
  TRACK 08 AUDIO
    TITLE "0:"
    INDEX 01 00:07:58
  TRACK 09 AUDIO
    TITLE "9:cjc113_1869"
    INDEX 01 00:08:05
  TRACK 10 AUDIO
    TITLE "0:"
    INDEX 01 00:09:14
  TRACK 11 AUDIO
    TITLE "10:cjc113_1870"
    INDEX 01 00:09:34
  TRACK 12 AUDIO
    TITLE "0:"
    INDEX 01 00:12:34
  TRACK 13 AUDIO
    TITLE "8:cjc113_1871"
    INDEX 01 00:13:02
  TRACK 14 AUDIO
    TITLE "0:"
    INDEX 01 00:14:19
  TRACK 15 AUDIO
    TITLE "9:cjc113_1872"
    INDEX 01 00:14:39
  TRACK 16 AUDIO
    TITLE "0:"
    INDEX 01 00:15:42
  TRACK 17 AUDIO
    TITLE "10:cjc113_1873"
    INDEX 01 00:15:58
  TRACK 18 AUDIO
    TITLE "0:"
    INDEX 01 00:19:18
  TRACK 19 AUDIO
    TITLE "8:cjc113_1874"
    INDEX 01 00:19:54
  TRACK 20 AUDIO
    TITLE "0:"
    INDEX 01 00:20:67
  TRACK 21 AUDIO
    TITLE "9:cjc113_1875"
    INDEX 01 00:21:13
  TRACK 22 AUDIO
    TITLE "0:"
    INDEX 01 00:22:36
  TRACK 23 AUDIO
    TITLE "10:cjc113_1876"
    INDEX 01 00:22:56
  TRACK 24 AUDIO
    TITLE "0:"
    INDEX 01 00:25:21
  TRACK 25 AUDIO
    TITLE "8:cjc113_1877"
    INDEX 01 00:25:66
  TRACK 26 AUDIO
    TITLE "0:"
    INDEX 01 00:27:02
  TRACK 27 AUDIO
    TITLE "9:cjc113_1878"
    INDEX 01 00:27:24
  TRACK 28 AUDIO
    TITLE "0:"
    INDEX 01 00:28:49
  TRACK 29 AUDIO
    TITLE "10:cjc113_1879"
    INDEX 01 00:28:70
  TRACK 30 AUDIO
    TITLE "0:"
    INDEX 01 00:32:33
  TRACK 31 AUDIO
    TITLE "8:cjc113_1880"
    INDEX 01 00:33:03
  TRACK 32 AUDIO
    TITLE "0:"
    INDEX 01 00:34:16
  TRACK 33 AUDIO
    TITLE "9:cjc113_1881"
    INDEX 01 00:34:36
  TRACK 34 AUDIO
    TITLE "0:"
    INDEX 01 00:35:59
  TRACK 35 AUDIO
    TITLE "10:cjc113_1882"
    INDEX 01 00:36:05
  TRACK 36 AUDIO
    TITLE "0:"
    INDEX 01 00:38:18
  TRACK 37 AUDIO
    TITLE "8:cjc113_1883"
    INDEX 01 00:38:61
  TRACK 38 AUDIO
    TITLE "0:"
    INDEX 01 00:39:68
  TRACK 39 AUDIO
    TITLE "9:cjc113_1884"
    INDEX 01 00:40:11
  TRACK 40 AUDIO
    TITLE "0:"
    INDEX 01 00:41:24
  TRACK 41 AUDIO
    TITLE "10:cjc113_1885"
    INDEX 01 00:41:44
  TRACK 42 AUDIO
    TITLE "0:"
    INDEX 01 00:45:33
  TRACK 43 AUDIO
    TITLE "8:cjc113_1886"
    INDEX 01 00:46:00
  TRACK 44 AUDIO
    TITLE "0:"
    INDEX 01 00:47:03
  TRACK 45 AUDIO
    TITLE "9:cjc113_1887"
    INDEX 01 00:47:23
  TRACK 46 AUDIO
    TITLE "0:"
    INDEX 01 00:48:20
  TRACK 47 AUDIO
    TITLE "10:cjc113_1888"
    INDEX 01 00:48:38
  TRACK 48 AUDIO
    TITLE "0:"
    INDEX 01 00:50:52
  TRACK 49 AUDIO
    TITLE "8:cjc113_1889"
    INDEX 01 00:51:18
  TRACK 50 AUDIO
    TITLE "0:"
    INDEX 01 00:52:20
  TRACK 51 AUDIO
    TITLE "9:cjc113_1890"
    INDEX 01 00:52:41
  TRACK 52 AUDIO
    TITLE "0:"
    INDEX 01 00:53:47
  TRACK 53 AUDIO
    TITLE "10:cjc113_1891"
    INDEX 01 00:53:66
  TRACK 54 AUDIO
    TITLE "0:"
    INDEX 01 00:57:50
  TRACK 55 AUDIO
    TITLE "8:cjc113_1892"
    INDEX 01 00:58:18
  TRACK 56 AUDIO
    TITLE "0:"
    INDEX 01 00:59:22
  TRACK 57 AUDIO
    TITLE "9:cjc113_1893"
    INDEX 01 00:59:39
  TRACK 58 AUDIO
    TITLE "0:"
    INDEX 01 01:01:23
  TRACK 59 AUDIO
    TITLE "10:cjc113_1894"
    INDEX 01 01:01:42
  TRACK 60 AUDIO
    TITLE "0:"
    INDEX 01 01:04:74
  TRACK 61 AUDIO
    TITLE "8:cjc113_1895"
    INDEX 01 01:05:40
  TRACK 62 AUDIO
    TITLE "0:"
    INDEX 01 01:06:43
  TRACK 63 AUDIO
    TITLE "9:cjc113_1896"
    INDEX 01 01:06:61
  TRACK 64 AUDIO
    TITLE "0:"
    INDEX 01 01:07:74
  TRACK 65 AUDIO
    TITLE "10:cjc113_1897"
    INDEX 01 01:08:21
  TRACK 66 AUDIO
    TITLE "0:"
    INDEX 01 01:12:36
  TRACK 67 AUDIO
    TITLE "8:cjc113_1898"
    INDEX 01 01:13:02
  TRACK 68 AUDIO
    TITLE "0:"
    INDEX 01 01:14:08
  TRACK 69 AUDIO
    TITLE "9:cjc113_1899"
    INDEX 01 01:14:31
  TRACK 70 AUDIO
    TITLE "0:"
    INDEX 01 01:15:74
  TRACK 71 AUDIO
    TITLE "10:cjc113_1900"
    INDEX 01 01:16:20
  TRACK 72 AUDIO
    TITLE "0:"
    INDEX 01 01:18:09
